<svg width="86" height="27" viewBox="0 0 86 27" fill="none" xmlns="http://www.w3.org/2000/svg">
<path d="M45.2083 6.70527C45.2083 7.66702 44.438 8.44143 43.482 8.44143C42.5259 8.44143 41.7561 7.66702 41.7561 6.70527C41.7561 5.74353 42.4997 4.96911 43.482 4.96911C44.4651 4.99579 45.2083 5.77048 45.2083 6.70527ZM38.0916 10.2048V10.6323C38.0916 10.6323 37.2687 9.56329 35.5161 9.56329C32.622 9.56329 30.3645 11.7806 30.3645 14.8524C30.3645 17.8977 32.5954 20.1414 35.5161 20.1414C37.2953 20.1414 38.0916 19.0463 38.0916 19.0463V19.5002C38.0916 19.7139 38.2513 19.8738 38.4635 19.8738H40.6141V9.82961H38.4635C38.2513 9.83041 38.0916 10.0177 38.0916 10.2048ZM38.0916 16.6422C37.6937 17.23 36.8968 17.7376 35.9411 17.7376C34.2417 17.7376 32.9403 16.6691 32.9403 14.8524C32.9403 13.0359 34.2417 11.9674 35.9411 11.9674C36.8706 11.9674 37.7202 12.5016 38.0916 13.0626V16.6422ZM42.2076 9.83041H44.7566V19.8746H42.2076V9.83041ZM80.2861 9.56303C78.5335 9.56303 77.7101 10.632 77.7101 10.632V4.9958H75.161V19.8746H77.3121C77.5246 19.8746 77.6835 19.6875 77.6835 19.5004V19.0465C77.6835 19.0465 78.5069 20.1417 80.2591 20.1417C83.1537 20.1417 85.4106 17.8985 85.4106 14.8532C85.4106 11.8078 83.1537 9.56303 80.2861 9.56303ZM79.8611 17.7106C78.8783 17.7106 78.1085 17.2036 77.7101 16.6155V13.0359C78.1085 12.5016 78.9582 11.9407 79.8611 11.9407C81.5605 11.9407 82.8616 13.0092 82.8616 14.8257C82.8616 16.6422 81.5607 17.7106 79.8611 17.7106ZM73.8336 13.9178V19.9013H71.2841V14.2114C71.2841 12.5555 70.753 11.8873 69.32 11.8873C68.5502 11.8873 67.7533 12.2881 67.248 12.876V19.8748H64.6995V9.83068H66.7169C66.9294 9.83068 67.0888 10.0177 67.0888 10.2048V10.6323C67.8324 9.85736 68.8147 9.56329 69.797 9.56329C70.9124 9.56329 71.842 9.88432 72.5855 10.5253C73.488 11.2733 73.8336 12.2348 73.8336 13.9178ZM58.5115 9.56303C56.7594 9.56303 55.936 10.632 55.936 10.632V4.9958H53.387V19.8746H55.5375C55.75 19.8746 55.9094 19.6875 55.9094 19.5004V19.0465C55.9094 19.0465 56.7328 20.1417 58.485 20.1417C61.3796 20.1417 63.6366 17.8985 63.6366 14.8532C63.6631 11.8075 61.4061 9.56303 58.5115 9.56303ZM58.0865 17.7106C57.1042 17.7106 56.3344 17.2036 55.936 16.6155V13.0359C56.3344 12.5016 57.1841 11.9407 58.0865 11.9407C59.7864 11.9407 61.0873 13.0092 61.0873 14.8257C61.0873 16.6422 59.7864 17.7106 58.0865 17.7106ZM51.1828 9.56303C51.9526 9.56303 52.3511 9.69698 52.3511 9.69698V12.0741C52.3511 12.0741 50.2268 11.3528 48.8994 12.8758V19.901H46.3498V9.83041H48.5009C48.7134 9.83041 48.8723 10.0175 48.8723 10.2045V10.632C49.3508 10.0708 50.3865 9.56303 51.1828 9.56303ZM24.7089 18.9662C24.5763 18.6457 24.4434 18.2985 24.3107 18.0045C24.098 17.5238 23.8855 17.0694 23.7001 16.6422L23.6735 16.6155C21.841 12.6084 19.8764 8.54844 17.8049 4.54188L17.7253 4.38123C17.5075 3.96559 17.2951 3.54704 17.0884 3.12568C16.8226 2.64454 16.5573 2.13751 16.1324 1.65637C15.2827 0.587882 14.0611 0 12.7602 0C11.4323 0 10.2375 0.587885 9.36156 1.60273C8.96312 2.08334 8.67079 2.5909 8.40552 3.07204C8.19828 3.49314 7.98596 3.91169 7.7686 4.32759L7.68875 4.48824C5.64403 8.4948 3.65263 12.555 1.8204 16.5618L1.79361 16.6149C1.60792 17.043 1.39517 17.4969 1.18268 17.9772C1.05005 18.2713 0.917411 18.5918 0.784775 18.939C0.439391 19.9271 0.333011 20.8622 0.466178 21.8242C0.758243 23.8278 2.08567 25.51 3.91817 26.2585C4.60867 26.5526 5.3257 26.686 6.069 26.686C6.28148 26.686 6.54676 26.6594 6.75951 26.6324C7.63597 26.5257 8.53869 26.2321 9.41515 25.7246C10.5038 25.11 11.5394 24.2288 12.7077 22.9466C13.876 24.2288 14.9381 25.11 16.0003 25.7246C16.877 26.2321 17.7794 26.5257 18.6556 26.6324C18.8681 26.6596 19.1339 26.686 19.3464 26.686C20.09 26.686 20.8333 26.5526 21.497 26.2585C23.356 25.51 24.6569 23.8011 24.9492 21.8242C25.1601 20.8894 25.054 19.9549 24.7089 18.9662ZM12.7334 20.3552C11.2994 18.5387 10.3699 16.8292 10.0515 15.3871C9.91889 14.7726 9.89211 14.2383 9.97195 13.7575C10.0247 13.3299 10.1844 12.9558 10.3969 12.6353C10.9015 11.9145 11.7511 11.4601 12.7337 11.4601C13.7165 11.4601 14.5927 11.8876 15.0708 12.6353C15.2832 12.9558 15.4424 13.3302 15.496 13.7575C15.5753 14.2386 15.5488 14.7993 15.4161 15.3871C15.0965 16.8025 14.167 18.5123 12.7334 20.3552ZM23.3279 21.6107C23.1422 22.9997 22.2127 24.2022 20.9118 24.7364C20.2746 25.0033 19.5838 25.0836 18.8939 25.0033C18.2301 24.9229 17.5659 24.7092 16.8759 24.3089C15.9199 23.7741 14.9641 22.9466 13.8486 21.7175C15.601 19.5541 16.6632 17.577 17.0616 15.8144C17.2476 14.9861 17.2744 14.2383 17.1943 13.5434C17.0884 12.8758 16.8491 12.2612 16.4775 11.7269C15.6538 10.5245 14.2728 9.83041 12.7332 9.83041C11.1935 9.83041 9.81252 10.5517 8.98938 11.7269C8.61773 12.2612 8.37846 12.8758 8.27235 13.5434C8.16624 14.2383 8.1925 15.0127 8.40498 15.8144C8.80316 17.577 9.89184 19.5805 11.6177 21.7442C10.529 22.973 9.54645 23.8013 8.59041 24.3356C7.89991 24.7364 7.23646 24.9502 6.57275 25.0299C5.85599 25.1103 5.16522 25.0033 4.55456 24.7631C3.25366 24.2288 2.32415 23.0264 2.13846 21.6374C2.05888 20.9697 2.11167 20.3021 2.37747 19.5541C2.45679 19.2867 2.58995 19.0198 2.72259 18.6993C2.90854 18.2718 3.1205 17.8174 3.33325 17.3635L3.36004 17.3104C5.19201 13.3299 7.15688 9.26975 9.2016 5.31656L9.28118 5.15591C9.49393 4.75563 9.70642 4.32813 9.91864 3.92731C10.1311 3.49981 10.3699 3.09899 10.6622 2.75154C11.2198 2.11109 11.9631 1.76338 12.7865 1.76338C13.6099 1.76338 14.3532 2.11109 14.9108 2.75154C15.2031 3.09979 15.4419 3.50061 15.6543 3.92731C15.8671 4.32813 16.0796 4.75563 16.2915 5.15591L16.3714 5.31656C18.3849 9.28617 20.3237 13.2937 22.1867 17.337V17.3637C22.3994 17.7918 22.5851 18.2721 22.7976 18.7001C22.9302 19.0201 23.0631 19.287 23.1427 19.5543C23.3547 20.2482 23.4343 20.9164 23.3279 21.6107Z" fill="#666666"/>
</svg>
