<svg width="51" height="27" viewBox="0 0 51 27" fill="none" xmlns="http://www.w3.org/2000/svg">
<path d="M34.4219 19.9994C33.8558 19.6924 33.2215 19.5329 32.5775 19.5356C31.1601 19.5356 30.1768 20.5217 30.1768 21.8528C30.1768 23.1439 31.1178 24.1723 32.5775 24.1723C33.221 24.1738 33.8547 24.0153 34.4219 23.7112V26.043C33.7742 26.2415 33.1013 26.3454 32.424 26.3516C29.9581 26.3516 27.7935 24.6516 27.7935 21.8517C27.7935 19.258 29.7519 17.3553 32.424 17.3553C33.1019 17.357 33.7756 17.4622 34.4219 17.6671V19.9994ZM11.5383 19.9994C10.9734 19.6918 10.3398 19.5322 9.69664 19.5356C8.27654 19.5356 7.29392 20.5217 7.29392 21.8528C7.29392 23.1439 8.23561 24.1723 9.69664 24.1723C10.3393 24.1744 10.9724 24.0159 11.5383 23.7112V26.043C10.8901 26.2423 10.2164 26.3462 9.53826 26.3516C7.07446 26.3516 4.9127 24.6516 4.9127 21.8517C4.9127 19.258 6.87105 17.3553 9.53899 17.3553C10.2174 17.3565 10.8917 17.4617 11.5383 17.6671V19.9994ZM41.3183 19.5682C41.0183 19.5654 40.7208 19.6226 40.4433 19.7367C40.1658 19.8507 39.914 20.0192 39.7027 20.2322C39.4914 20.4452 39.3249 20.6983 39.2131 20.9767C39.1013 21.2551 39.0464 21.5531 39.0516 21.853C39.0461 22.1532 39.1008 22.4513 39.2125 22.7299C39.3242 23.0085 39.4906 23.262 39.702 23.4752C39.9133 23.6883 40.1652 23.857 40.4428 23.9711C40.7204 24.0853 41.0181 24.1426 41.3183 24.1397C41.6185 24.1425 41.9162 24.0851 42.1938 23.971C42.4715 23.8568 42.7235 23.6882 42.9349 23.475C43.1463 23.2619 43.3128 23.0085 43.4247 22.7299C43.5366 22.4513 43.5915 22.1532 43.5863 21.853C43.5913 21.553 43.5361 21.2551 43.4241 20.9767C43.3121 20.6984 43.1455 20.4453 42.9342 20.2323C42.7228 20.0194 42.4709 19.8509 42.1934 19.7369C41.9159 19.6228 41.6183 19.5655 41.3183 19.5682ZM45.9092 21.853C45.9092 24.3383 43.9904 26.3522 41.319 26.3522C38.6476 26.3522 36.7302 24.3383 36.7302 21.8523C36.7302 19.3717 38.6468 17.3558 41.3183 17.3558C43.9898 17.3558 45.9092 19.3715 45.9092 21.853ZM25.0582 19.4848C25.0256 19.4746 24.1026 19.2195 23.3443 19.2195C22.4659 19.2195 21.9881 19.514 21.9881 19.9314C21.9881 20.4606 22.6326 20.6452 22.9929 20.7591L23.5978 20.9515C25.0214 21.404 25.6693 22.3785 25.6693 23.4369C25.6693 25.6195 23.7499 26.3528 22.0721 26.3528C21.2779 26.3452 20.4861 26.2657 19.7062 26.1154V24.1159C19.8992 24.1645 20.8187 24.4395 21.7763 24.4395C22.8673 24.4395 23.3687 24.1201 23.3687 23.6284C23.3687 23.1881 22.9347 22.9339 22.3909 22.7631C22.259 22.7187 22.0589 22.6562 21.9229 22.6118C20.7021 22.2256 19.684 21.5076 19.684 20.0701C19.684 18.4452 20.9007 17.3542 22.9214 17.3542C23.6419 17.364 24.3589 17.4567 25.0582 17.6305V19.4848Z" fill="#666666"/>
<path d="M16.7443 26.1987H14.5519V17.5102H16.7443V26.1987Z" fill="#666666"/>
<path d="M2.26774 7.40632C2.47174 7.60954 2.58679 7.88541 2.58763 8.17339L2.58773 10.4539C2.58057 10.7378 2.46273 11.0077 2.25937 11.206C2.056 11.4043 1.78321 11.5152 1.49919 11.5152C1.21517 11.5152 0.94237 11.4043 0.739007 11.206C0.535643 11.0077 0.417806 10.7378 0.410645 10.4539V8.17264C0.411787 7.88471 0.52705 7.60903 0.731161 7.40597C0.935271 7.2029 1.21158 7.08902 1.4995 7.08937C1.78745 7.08912 2.06374 7.2031 2.26774 7.40632Z" fill="#666666"/>
<path d="M8.48317 4.76421C8.53788 4.89627 8.56603 5.03782 8.56603 5.18078V10.4543C8.56603 10.743 8.45135 11.0199 8.2472 11.224C8.04306 11.4282 7.76619 11.5429 7.47749 11.5429C7.18879 11.5429 6.91192 11.4282 6.70777 11.224C6.50363 11.0199 6.38895 10.743 6.38895 10.4543V5.18078C6.38895 5.03782 6.41711 4.89627 6.47181 4.76421C6.52652 4.63214 6.6067 4.51218 6.70778 4.4111C6.80886 4.31002 6.92886 4.22983 7.06093 4.17515C7.193 4.12046 7.33455 4.09234 7.47749 4.09234C7.62044 4.09234 7.76198 4.12046 7.89405 4.17515C8.02612 4.22983 8.14612 4.31002 8.2472 4.4111C8.34828 4.51218 8.42847 4.63214 8.48317 4.76421Z" fill="#666666"/>
<path d="M14.2253 0.317704C14.4293 0.521071 14.5443 0.796997 14.5452 1.08502V12.6218C14.5379 12.9057 14.4201 13.1755 14.2167 13.3738C14.0134 13.572 13.7406 13.6829 13.4566 13.6829C13.1726 13.6829 12.8999 13.572 12.6965 13.3738C12.4931 13.1755 12.3753 12.9057 12.3681 12.6218V1.08502C12.3689 0.796897 12.4841 0.52087 12.6882 0.317503C12.8923 0.114137 13.1688 0.000100428 13.4569 0.000301284C13.745 0.000200856 14.0213 0.114337 14.2253 0.317704Z" fill="#666666"/>
<path d="M20.441 4.76406C20.4956 4.89622 20.5237 5.03777 20.5236 5.18078L20.524 5.17923V10.4534C20.524 10.7421 20.4093 11.019 20.2051 11.2231C20.001 11.4273 19.7241 11.5419 19.4354 11.5419C19.1467 11.5419 18.8699 11.4273 18.6657 11.2231C18.4616 11.019 18.3469 10.7421 18.3469 10.4534V5.17983C18.3469 5.03687 18.375 4.89537 18.4298 4.7633C18.4845 4.63124 18.5646 4.51123 18.6657 4.41015C18.7668 4.30907 18.8868 4.22893 19.0189 4.17424C19.1509 4.11956 19.2925 4.09139 19.4354 4.09139C19.5784 4.09144 19.72 4.11966 19.8521 4.17444C19.9842 4.22923 20.1042 4.30947 20.2052 4.41065C20.3063 4.51183 20.3864 4.63189 20.441 4.76406Z" fill="#666666"/>
<path d="M26.1791 7.40742C26.382 7.61069 26.4959 7.88622 26.4957 8.17339V10.4539C26.4957 10.7417 26.3814 11.0177 26.1779 11.2212C25.9744 11.4246 25.6984 11.539 25.4106 11.539C25.1229 11.539 24.8469 11.4246 24.6434 11.2212C24.4399 11.0177 24.3256 10.7417 24.3256 10.4539V8.17264C24.3267 7.88481 24.4418 7.60918 24.6458 7.40612C24.8498 7.20305 25.1259 7.08917 25.4137 7.08937C25.7009 7.08977 25.9762 7.20416 26.1791 7.40742Z" fill="#666666"/>
<path d="M32.1495 4.43114C32.3522 4.62878 32.4697 4.89778 32.4769 5.18078V10.4543C32.4769 10.5968 32.4488 10.7379 32.3943 10.8695C32.3397 11.0012 32.2598 11.1208 32.1591 11.2216C32.0583 11.3224 31.9387 11.4023 31.8071 11.4568C31.6754 11.5113 31.5343 11.5394 31.3918 11.5394C31.1041 11.5393 30.8281 11.425 30.6246 11.2215C30.4211 11.0181 30.3068 10.7421 30.3068 10.4543V5.18078C30.314 4.89778 30.4314 4.62878 30.6341 4.43114C30.8368 4.2335 31.1087 4.12287 31.3918 4.12287C31.6749 4.12287 31.9468 4.2335 32.1495 4.43114Z" fill="#666666"/>
<path d="M38.1416 0.317805C38.3451 0.521272 38.4594 0.797248 38.4594 1.08502V12.6218C38.4679 12.8176 38.4234 13.0121 38.3303 13.1846C38.2373 13.3571 38.0993 13.5013 37.931 13.6017C37.7627 13.7022 37.5703 13.7553 37.3743 13.7553C37.1783 13.7553 36.9859 13.7022 36.8176 13.6017C36.6493 13.5012 36.5113 13.3571 36.4183 13.1845C36.3253 13.012 36.2807 12.8176 36.2893 12.6218V1.08502C36.2893 0.797248 36.4036 0.521272 36.6071 0.317805C36.8106 0.114337 37.0866 0 37.3743 0C37.6621 0 37.9381 0.114337 38.1416 0.317805Z" fill="#666666"/>
<path d="M44.356 4.76265C44.4115 4.89507 44.4402 5.03717 44.4406 5.18078V10.4543C44.4405 10.598 44.4119 10.7403 44.3565 10.8729C44.3012 11.0056 44.2201 11.1259 44.1179 11.227C44.0158 11.3281 43.8946 11.4079 43.7614 11.462C43.6282 11.516 43.4857 11.5431 43.3419 11.5416C43.1993 11.5415 43.0581 11.5133 42.9264 11.4586C42.7946 11.404 42.675 11.3238 42.5742 11.2228C42.4735 11.1218 42.3936 11.002 42.3392 10.8701C42.2848 10.7383 42.257 10.597 42.2572 10.4543V5.18008C42.2572 4.89235 42.3715 4.61633 42.5749 4.41281C42.7783 4.20929 43.0542 4.09485 43.3419 4.0947C43.4855 4.0934 43.628 4.12046 43.761 4.17444C43.8941 4.22842 44.0152 4.30816 44.1173 4.40909C44.2194 4.51002 44.3005 4.63024 44.356 4.76265Z" fill="#666666"/>
<path d="M50.0925 7.40537C50.2962 7.60908 50.4106 7.88531 50.4106 8.17339L50.4099 10.454C50.4101 10.5967 50.3822 10.7381 50.3278 10.87C50.2733 11.0019 50.1934 11.1219 50.0927 11.2229C49.9919 11.324 49.8722 11.4042 49.7404 11.4589C49.6086 11.5137 49.4673 11.542 49.3246 11.5421C49.1818 11.542 49.0405 11.5138 48.9086 11.4591C48.7767 11.4044 48.6569 11.3241 48.5561 11.2231C48.4552 11.1221 48.3753 11.0021 48.3208 10.8702C48.2663 10.7382 48.2383 10.5968 48.2385 10.454V8.17339C48.2385 7.88531 48.3529 7.60908 48.5566 7.40537C48.7603 7.20165 49.0365 7.08726 49.3246 7.08721C49.6126 7.08726 49.8889 7.20165 50.0925 7.40537Z" fill="#666666"/>
<path d="M49.1555 25.1897H48.768H49.1555Z" fill="#666666"/>
<path d="M48.768 25.1897V26.1975V25.1897Z" fill="#666666"/>
<path d="M48.768 26.1975H48.6083H48.768Z" fill="#666666"/>
<path d="M48.6083 26.1975V25.1905V26.1975Z" fill="#666666"/>
<path d="M48.6083 25.1905H48.2195H48.6083Z" fill="#666666"/>
<path d="M48.2195 25.1905V25.0536V25.1905Z" fill="#666666"/>
<path d="M48.2195 25.0536L49.1555 25.0535L48.2195 25.0536Z" fill="#666666"/>
<path d="M49.486 25.0535L49.8284 25.9918L49.486 25.0535Z" fill="#666666"/>
<path d="M49.8284 25.9918H49.8339H49.8284Z" fill="#666666"/>
<path d="M49.8339 25.9918L50.1652 25.0543L49.8339 25.9918Z" fill="#666666"/>
<path d="M50.1652 25.0543H50.4096H50.1652Z" fill="#666666"/>
<path d="M50.4096 25.0543V26.1973V25.0543Z" fill="#666666"/>
<path d="M50.4096 26.1973H50.2464H50.4096Z" fill="#666666"/>
<path d="M50.2464 26.1973V25.2599V26.1973Z" fill="#666666"/>
<path d="M50.2464 25.2599H50.2409H50.2464Z" fill="#666666"/>
<path d="M50.2409 25.2599L49.8937 26.1973L50.2409 25.2599Z" fill="#666666"/>
<path d="M49.8937 26.1973H49.7432H49.8937Z" fill="#666666"/>
<path d="M49.7432 26.1973L49.4039 25.2599L49.7432 26.1973Z" fill="#666666"/>
<path d="M49.4039 25.2599H49.3963H49.4039Z" fill="#666666"/>
<path d="M49.3963 25.2599V26.1973V25.2599Z" fill="#666666"/>
<path d="M49.3963 26.1973H49.2365H49.3963Z" fill="#666666"/>
<path d="M49.2365 26.1973L49.2368 25.0535L49.2365 26.1973Z" fill="#666666"/>
<path d="M49.486 25.0535L49.8284 25.9918H49.8339L50.1652 25.0543H50.4096V26.1973H50.2464V25.2599H50.2409L49.8937 26.1973H49.7432L49.4039 25.2599H49.3963V26.1973H49.2365L49.2368 25.0535H49.486Z" fill="#666666"/>
<path d="M49.1555 25.1897H48.768V26.1975H48.6083V25.1905H48.2195V25.0536L49.1555 25.0535V25.1897Z" fill="#666666"/>
</svg>
