<svg width="49" height="19" viewBox="0 0 49 19" fill="none" xmlns="http://www.w3.org/2000/svg">
<path fill-rule="evenodd" clip-rule="evenodd" d="M14.8594 5.71924C14.8594 5.71924 16.1764 3.98389 19.2344 4C22.2934 4.01611 25.1294 6.06299 25.0634 9.58594C25.0568 9.91113 25.029 10.2217 24.9813 10.519C25.7995 8.31641 29.8405 8.01562 31.0474 8.00781C31.7574 8.00781 33.8874 8 33.8874 8C33.8984 6.56982 33.4454 5.61279 30.9654 5.56982C28.8514 5.53076 28.3084 6.58594 28.1804 7H25.5904C26.2504 3.60205 31.1334 4.01611 31.1334 4.01611C36.2199 4.21533 36.345 6.83105 36.4038 8.06299L36.4104 8.19482V15L34.1564 15.0117L34.0554 13.1797C33.0944 14.3398 31.8014 14.9878 29.5314 15C27.3216 15.0112 24.5147 14.0942 24.8367 11.1797C24.1363 13.6719 21.8995 15 19.1834 15C15.9384 15 14.8284 13.2661 14.8284 13.2661L14.7264 15H12.4104V10H2.85139C2.85139 10 2.98838 13.3989 6.48038 13.4639C9.19538 13.5122 9.68739 11.6841 9.68739 11.6841L12.1954 11.6758C12.1954 11.6758 11.9294 15 6.4694 15C0.117378 15 0.414375 9.70312 0.414375 9.70312C0.3834 8.52686 0.40638 4 6.41038 4C11.4349 4 12.2915 7.43018 12.4104 9.10352V0H14.8594V5.71924ZM14.8754 9.54297C14.8754 9.54297 14.8124 13.4771 18.6764 13.4302C22.5354 13.3828 22.5434 9.625 22.5434 9.625C22.5434 9.625 22.6014 5.47705 18.6684 5.57422C14.7354 5.67188 14.8754 9.54297 14.8754 9.54297ZM6.55839 5.55078C3.10538 5.55078 2.93339 8.51611 2.93339 8.51611H9.99638C9.99638 8.51611 9.99638 5.54688 6.55839 5.55078ZM27.3554 11.645C27.5004 13.5161 29.9574 13.5117 29.9574 13.5117C34.3594 13.5659 33.9104 9.56299 33.9134 9.56299L31.1334 9.56592C31.1334 9.56592 27.2034 9.64795 27.3554 11.645Z" fill="#666666"/>
<path d="M34.8484 4H37.6524L41.7584 12.1841L45.8754 4H48.4104L40.9844 19H38.2704L40.4194 14.5352L34.8484 4Z" fill="#666666"/>
</svg>
