<svg width="12" height="21" viewBox="0 0 12 21" fill="none" xmlns="http://www.w3.org/2000/svg">
<path d="M3.12 11.8388C3.042 11.8388 1.326 11.8388 0.545999 11.8388C0.13 11.8388 0 11.6828 0 11.2928C0 10.2528 0 9.18679 0 8.14679C0 7.73079 0.156 7.60079 0.545999 7.60079H3.12C3.12 7.52279 3.12 6.01479 3.12 5.31279C3.12 4.27279 3.302 3.28479 3.82199 2.37479C4.36799 1.43879 5.14799 0.814793 6.13599 0.450793C6.78599 0.216793 7.43599 0.112793 8.13799 0.112793H10.686C11.05 0.112793 11.206 0.268793 11.206 0.632793V3.59679C11.206 3.96079 11.05 4.11679 10.686 4.11679C9.98399 4.11679 9.28199 4.11679 8.57999 4.14279C7.87799 4.14279 7.51399 4.48079 7.51399 5.20879C7.48799 5.98879 7.51399 6.74279 7.51399 7.54879H10.53C10.946 7.54879 11.102 7.70479 11.102 8.12079V11.2668C11.102 11.6828 10.972 11.8128 10.53 11.8128C9.59399 11.8128 7.59199 11.8128 7.51399 11.8128V20.2888C7.51399 20.7308 7.38399 20.8868 6.91599 20.8868C5.82399 20.8868 4.75799 20.8868 3.66599 20.8868C3.276 20.8868 3.12 20.7308 3.12 20.3408C3.12 17.6108 3.12 11.9168 3.12 11.8388Z" fill="black"/>
</svg>
