<svg width="22" height="21" viewBox="0 0 22 21" fill="none" xmlns="http://www.w3.org/2000/svg">
<path d="M15.9557 0H5.45593C2.56875 0 0.206055 2.3627 0.206055 5.24987V15.7501C0.206055 18.6365 2.56875 21 5.45593 21H15.9557C18.8428 21 21.2055 18.6365 21.2055 15.7501V5.24987C21.2055 2.3627 18.8428 0 15.9557 0ZM19.4555 15.7501C19.4555 17.6795 17.8861 19.25 15.9557 19.25H5.45593C3.52634 19.25 1.9561 17.6795 1.9561 15.7501V5.24987C1.9561 3.32003 3.52634 1.75004 5.45593 1.75004H15.9557C17.8861 1.75004 19.4555 3.32003 19.4555 5.24987V15.7501Z" fill="black"/>
<path d="M16.3933 6.12445C17.1181 6.12445 17.7057 5.53684 17.7057 4.81198C17.7057 4.08712 17.1181 3.49951 16.3933 3.49951C15.6684 3.49951 15.0808 4.08712 15.0808 4.81198C15.0808 5.53684 15.6684 6.12445 16.3933 6.12445Z" fill="black"/>
<path d="M10.4549 5.25C7.55491 5.25 5.20508 7.60009 5.20508 10.4999C5.20508 13.3986 7.55491 15.7503 10.4549 15.7503C13.3542 15.7503 15.7048 13.3986 15.7048 10.4999C15.7048 7.60009 13.3542 5.25 10.4549 5.25ZM10.4549 14.0002C8.52218 14.0002 6.95512 12.4331 6.95512 10.4999C6.95512 8.5666 8.52218 7.00004 10.4549 7.00004C12.3877 7.00004 13.9548 8.5666 13.9548 10.4999C13.9548 12.4331 12.3877 14.0002 10.4549 14.0002Z" fill="black"/>
</svg>
