<svg width="20" height="19" viewBox="0 0 20 19" fill="none" xmlns="http://www.w3.org/2000/svg">
<g clip-path="url(#clip0)">
<path d="M17.2287 0.5H2.02866C0.983662 0.5 0.128662 1.31 0.128662 2.3V16.7C0.128662 17.69 0.983662 18.5 2.02866 18.5H17.2287C18.2737 18.5 19.1287 17.69 19.1287 16.7V2.3C19.1287 1.31 18.2737 0.5 17.2287 0.5ZM5.82866 15.8H2.97866V7.7H5.82866V15.8ZM4.40366 6.17C3.45366 6.17 2.69366 5.45 2.69366 4.55C2.69366 3.65 3.45366 2.93 4.40366 2.93C5.35366 2.93 6.11366 3.65 6.11366 4.55C6.11366 5.45 5.35366 6.17 4.40366 6.17ZM16.2787 15.8H13.4287V11.03C13.4287 10.31 12.7637 9.68 12.0037 9.68C11.2437 9.68 10.5787 10.31 10.5787 11.03V15.8H7.72866V7.7H10.5787V8.78C11.0537 8.06 12.0987 7.52 12.9537 7.52C14.7587 7.52 16.2787 8.96 16.2787 10.67V15.8Z" fill="black"/>
</g>
<defs>
<clipPath id="clip0">
<rect width="19" height="18" fill="white" transform="translate(0.128662 0.5)"/>
</clipPath>
</defs>
</svg>
