<svg width="136" height="48" viewBox="0 0 136 48" fill="none" xmlns="http://www.w3.org/2000/svg">
<rect width="48" height="48" rx="3.6" fill="#3377FF"/>
<path d="M26.9647 12V28.5087C26.953 30.7861 25.9177 31.9884 24.0354 31.9884C22.2589 31.9884 21.106 30.9017 21.0707 29.0173H16.0001C15.9766 33.7457 19.4119 36 23.7765 36C28.6588 36 31.9882 33.0983 32 28.5087V12H26.9647Z" fill="white"/>
<path d="M72.5057 15.5455V27.7159C72.4972 29.3949 71.7472 30.2812 70.3835 30.2812C69.0966 30.2812 68.2614 29.4801 68.2358 28.0909H64.5625C64.5455 31.5767 67.0341 33.2386 70.196 33.2386C73.733 33.2386 76.1449 31.0994 76.1534 27.7159V15.5455H72.5057ZM80.4382 33.2216C81.5291 33.2216 82.4751 32.3097 82.4837 31.1761C82.4751 30.0597 81.5291 29.1477 80.4382 29.1477C79.3132 29.1477 78.3842 30.0597 78.3928 31.1761C78.3842 32.3097 79.3132 33.2216 80.4382 33.2216ZM96.4545 33C101.773 33 104.994 29.7102 104.994 24.2557C104.994 18.8182 101.773 15.5455 96.5057 15.5455H90.267V33H96.4545ZM93.9574 29.8381V18.7074H96.3097C99.5824 18.7074 101.312 20.3778 101.312 24.2557C101.312 28.1506 99.5824 29.8381 96.3011 29.8381H93.9574ZM113.575 33.2557C117.546 33.2557 120.018 30.5369 120.018 26.5057C120.018 22.4489 117.546 19.7386 113.575 19.7386C109.603 19.7386 107.131 22.4489 107.131 26.5057C107.131 30.5369 109.603 33.2557 113.575 33.2557ZM113.592 30.4432C111.759 30.4432 110.822 28.7642 110.822 26.4801C110.822 24.196 111.759 22.5085 113.592 22.5085C115.39 22.5085 116.327 24.196 116.327 26.4801C116.327 28.7642 115.39 30.4432 113.592 30.4432ZM128.344 33.2557C131.583 33.2557 133.765 31.679 134.276 29.25L130.918 29.0284C130.552 30.0256 129.614 30.5455 128.404 30.5455C126.589 30.5455 125.438 29.3438 125.438 27.392V27.3835H134.353V26.3864C134.353 21.9375 131.66 19.7386 128.2 19.7386C124.347 19.7386 121.85 22.4744 121.85 26.5142C121.85 30.6648 124.313 33.2557 128.344 33.2557ZM125.438 25.1335C125.515 23.642 126.648 22.4489 128.259 22.4489C129.836 22.4489 130.927 23.5739 130.935 25.1335H125.438Z" fill="#3377FF"/>
</svg>
