<svg width="95" height="21" viewBox="0 0 95 21" fill="none" xmlns="http://www.w3.org/2000/svg">
<path d="M94.5888 9.09604V7.43963H92.5321V4.86455L92.463 4.88594L90.4932 5.4886V7.43963H87.4439V6.35201C87.4146 5.94024 87.5338 5.5316 87.78 5.2002C87.8986 5.07006 88.0447 4.96798 88.2077 4.90136C88.3707 4.83474 88.5465 4.80527 88.7223 4.81507C89.0312 4.81919 89.3357 4.88845 89.616 5.01833L89.6918 5.05221V3.30933L89.6561 3.29641C89.2864 3.18252 88.9003 3.13099 88.5136 3.14396C87.9494 3.13506 87.392 3.26892 86.8934 3.5331C86.4249 3.78516 86.039 4.16676 85.7817 4.63231C85.5142 5.12719 85.3787 5.68258 85.3881 6.24503V7.43963H83.9559V9.09604H85.3881V16.0733H87.4439V9.09604H90.4932V13.5286C90.4932 15.3561 91.3544 16.2802 93.0536 16.2802C93.3471 16.2785 93.6396 16.2461 93.9264 16.1834C94.1466 16.146 94.3605 16.0782 94.562 15.982L94.5892 15.9659V14.2944L94.5054 14.3496C94.3779 14.4303 94.2384 14.4905 94.0922 14.5279C93.9605 14.5687 93.8239 14.5919 93.6861 14.597C93.5258 14.611 93.3644 14.5897 93.2133 14.5347C93.0621 14.4796 92.9248 14.3921 92.8111 14.2783C92.5947 13.9521 92.4962 13.5618 92.5321 13.172V9.09604H94.5888ZM79.3638 14.5984C79.0357 14.6155 78.708 14.5583 78.4051 14.431C78.1022 14.3037 77.832 14.1097 77.6147 13.8633C77.1638 13.2689 76.9408 12.5326 76.9862 11.7879C76.9384 11.0258 77.1609 10.2713 77.6147 9.65723C77.8275 9.40909 78.0942 9.21283 78.3943 9.08343C78.6945 8.95404 79.0203 8.89492 79.3469 8.9106C79.6635 8.8954 79.9795 8.9516 80.2714 9.07505C80.5634 9.19851 80.8239 9.38605 81.0336 9.6238C81.4839 10.2324 81.7023 10.9818 81.6496 11.7371C81.7016 12.4951 81.4975 13.2485 81.0701 13.8767C80.8616 14.1216 80.5987 14.3143 80.3024 14.4395C80.0061 14.5646 79.6847 14.6196 79.3638 14.5984ZM79.4552 7.22835C78.84 7.19452 78.2245 7.2871 77.6465 7.50038C77.0685 7.71367 76.5404 8.04312 76.0947 8.46842C75.6777 8.92371 75.3556 9.45748 75.1471 10.0386C74.9387 10.6197 74.848 11.2365 74.8804 11.853C74.8509 12.4436 74.9406 13.0341 75.1443 13.5892C75.3479 14.1444 75.6613 14.6528 76.0657 15.0842C76.4871 15.4889 76.9865 15.8034 77.5334 16.0086C78.0804 16.2139 78.6634 16.3055 79.247 16.2779C79.8532 16.3077 80.4589 16.2114 81.0259 15.995C81.5929 15.7787 82.1089 15.447 82.5411 15.0209C82.9546 14.5701 83.2747 14.0419 83.4831 13.4667C83.6915 12.8916 83.784 12.2809 83.7553 11.6698C83.8201 10.4773 83.4107 9.30762 82.6164 8.41582C82.2004 8.0099 81.7046 7.69485 81.1604 7.49066C80.6162 7.28647 80.0355 7.1976 79.4552 7.22969V7.22835ZM71.5654 7.22969C70.7105 7.19352 69.8693 7.45346 69.1838 7.96562C68.889 8.18939 68.6513 8.47966 68.49 8.81275C68.3288 9.14584 68.2485 9.51233 68.2557 9.88233C68.2486 10.2489 68.3167 10.613 68.4559 10.9521C68.594 11.2646 68.8046 11.5396 69.0701 11.7545C69.453 12.0423 69.8728 12.2774 70.3182 12.4534C70.6743 12.5933 71.0215 12.7549 71.3577 12.9375C71.5346 13.0298 71.6905 13.1577 71.8155 13.3133C71.907 13.4598 71.9514 13.631 71.9425 13.8036C71.9425 14.3831 71.5084 14.6657 70.6142 14.6657C70.2312 14.6565 69.8519 14.5872 69.4905 14.4602C69.0792 14.3258 68.691 14.129 68.3395 13.8767L68.254 13.8156V15.7952L68.2852 15.8099C68.6347 15.9625 69.0003 16.0754 69.375 16.1464C69.7575 16.2299 70.1474 16.2747 70.5389 16.2802C71.4369 16.3271 72.324 16.0659 73.0533 15.5398C73.353 15.3098 73.594 15.0123 73.7567 14.6714C73.9194 14.3306 73.9991 13.9561 73.9894 13.5785C74.0042 13.0397 73.8255 12.5134 73.4857 12.095C73.01 11.601 72.4234 11.2274 71.7745 11.0052C71.3375 10.8588 70.9261 10.645 70.5554 10.3713C70.4708 10.2833 70.4053 10.1789 70.363 10.0644C70.3206 9.95002 70.3024 9.82808 70.3093 9.70626C70.3075 9.58611 70.335 9.46733 70.3894 9.36017C70.4437 9.25301 70.5233 9.16067 70.6213 9.09113C70.8775 8.91393 71.1853 8.82704 71.4963 8.84419C71.8495 8.84587 72.2006 8.89979 72.538 9.00421C72.8607 9.09829 73.1674 9.24044 73.4478 9.42589L73.5316 9.48339V7.60813L73.4995 7.59431C73.2017 7.47567 72.8921 7.3893 72.5759 7.33667C72.2422 7.27128 71.9032 7.23622 71.5632 7.23192L71.5654 7.22969ZM62.8965 14.5984C62.5684 14.6155 62.2407 14.5583 61.9378 14.431C61.635 14.3037 61.3648 14.1097 61.1474 13.8633C60.6972 13.2694 60.4744 12.534 60.5193 11.7901C60.4715 11.0281 60.6941 10.2736 61.1478 9.65946C61.3606 9.41124 61.6272 9.21492 61.9275 9.08552C62.2277 8.95612 62.5535 8.89705 62.88 8.91283C63.1966 8.89762 63.5127 8.95383 63.8046 9.07728C64.0966 9.20074 64.3571 9.38828 64.5667 9.62603C65.0171 10.2347 65.2356 10.984 65.1828 11.7393C65.2348 12.4973 65.0307 13.2508 64.6033 13.8789C64.3948 14.1238 64.1319 14.3166 63.8356 14.4417C63.5393 14.5669 63.2179 14.621 62.897 14.5997L62.8965 14.5984ZM62.9888 7.23058C62.3736 7.1967 61.7581 7.28926 61.1801 7.50254C60.6021 7.71582 60.074 8.04531 59.6283 8.47065C59.2112 8.9259 58.8891 9.45965 58.6805 10.0408C58.472 10.6219 58.3812 11.2387 58.4136 11.8552C58.3841 12.4458 58.4739 13.0364 58.6776 13.5915C58.8813 14.1467 59.1948 14.6551 59.5993 15.0864C60.0207 15.4911 60.5201 15.8057 61.067 16.0109C61.614 16.2161 62.1971 16.3077 62.7806 16.2802C63.3868 16.3099 63.9925 16.2136 64.5595 15.9972C65.1265 15.7808 65.6425 15.4492 66.0747 15.0231C66.4882 14.5723 66.8083 14.0441 67.0167 13.4689C67.2251 12.8938 67.3176 12.2831 67.2889 11.672C67.3537 10.4795 66.9441 9.30972 66.1496 8.41805C65.7336 8.01218 65.2379 7.69716 64.6938 7.49298C64.1497 7.28879 63.569 7.19989 62.9888 7.23192V7.23058ZM55.2929 8.93512V7.43963H53.2621V16.0733H55.2929V11.6564C55.2639 11.007 55.4411 10.3651 55.7993 9.82261C55.9429 9.6063 56.1385 9.42946 56.3682 9.30829C56.5978 9.18712 56.8542 9.12549 57.1138 9.12902C57.3204 9.13216 57.5257 9.16213 57.7245 9.21817C57.8918 9.25536 58.0518 9.32013 58.1979 9.40984L58.2835 9.4718V7.42492L58.2505 7.41066C57.9957 7.3196 57.7256 7.27858 57.4553 7.28986C56.959 7.28498 56.4773 7.45761 56.0971 7.77662C55.7411 8.08921 55.472 8.48841 55.3157 8.93556L55.2929 8.93512ZM49.6253 7.23147C48.7648 7.21414 47.9143 7.41861 47.1558 7.82521C46.4583 8.20905 45.8912 8.79231 45.527 9.50033C45.1433 10.2701 44.9513 11.1213 44.9676 11.9814C44.9575 12.7569 45.1447 13.5223 45.5114 14.2056C45.8596 14.8534 46.3872 15.3869 47.031 15.7421C47.7127 16.1091 48.4772 16.295 49.2513 16.2819C50.1047 16.3093 50.9502 16.1115 51.7029 15.7083L51.7296 15.6931V13.8321L51.644 13.8945C51.3401 14.1149 51.0053 14.2893 50.6505 14.412C50.3388 14.5284 50.01 14.5921 49.6774 14.6006C49.3262 14.6177 48.9754 14.5605 48.6479 14.4329C48.3203 14.3052 48.0233 14.1099 47.7763 13.8597C47.2841 13.2928 47.0325 12.5562 47.0751 11.8066C47.0378 11.0361 47.2997 10.281 47.8062 9.69913C48.049 9.43958 48.3447 9.2351 48.6732 9.09946C49.0018 8.96383 49.3556 8.90019 49.7108 8.91283C50.4107 8.92382 51.0885 9.15965 51.644 9.58547L51.7292 9.64742V7.68613L51.7015 7.67053C51.4058 7.51857 51.0891 7.41146 50.7619 7.35271C50.3886 7.27366 50.0082 7.23288 49.6266 7.23103L49.6253 7.23147ZM43.5698 7.43919H41.5389V16.0733H43.5698V7.43919ZM42.5753 3.76132C42.2535 3.75621 41.9427 3.87808 41.7101 4.10053C41.5931 4.20791 41.5002 4.33896 41.4377 4.48499C41.3753 4.63101 41.3446 4.78866 41.3477 4.94746C41.3442 5.10334 41.3742 5.25817 41.4357 5.40145C41.4972 5.54472 41.5888 5.6731 41.7043 5.77789C41.94 5.997 42.2518 6.11565 42.5735 6.10863C42.8961 6.11506 43.2088 5.99674 43.4463 5.77833C43.5633 5.6743 43.6563 5.54616 43.719 5.40272C43.7817 5.25929 43.8126 5.10397 43.8096 4.94746C43.8112 4.79108 43.7807 4.63602 43.7199 4.49194C43.6591 4.34786 43.5693 4.21781 43.4561 4.1099C43.34 3.99534 43.2019 3.90542 43.0501 3.84552C42.8984 3.78562 42.7361 3.75698 42.5731 3.76132H42.5753ZM37.5058 6.80222V16.0738H39.5785V4.0261H36.7101L33.0639 12.9745L29.5256 4.0261H26.5391V16.0729H28.487V6.80132H28.5538L32.2901 16.0729H33.7611L37.4394 6.80132L37.5058 6.80222Z" fill="#666666"/>
<path d="M9.96437 9.55372H0.410645V0H9.96437V9.55372Z" fill="#666666"/>
<path d="M20.513 9.55372H10.9593V0H20.513V9.55372Z" fill="#666666"/>
<path d="M9.96437 20.1059H0.410645V10.5521H9.96437V20.1059Z" fill="#666666"/>
<path d="M20.513 20.1059H10.9593V10.5521H20.513V20.1059Z" fill="#666666"/>
</svg>
