<svg width="16" height="14" viewBox="0 0 16 14" fill="none" xmlns="http://www.w3.org/2000/svg">
<path d="M7.66664 0.909922C7.74053 0.697113 8.04149 0.697114 8.11537 0.909922L9.69702 5.46567C9.73019 5.56122 9.82024 5.62528 9.92138 5.62528H15.0045C15.2383 5.62528 15.3314 5.92768 15.138 6.05918L11.0534 8.83659C10.9646 8.89697 10.9273 9.00943 10.9626 9.11088L12.529 13.6229C12.604 13.839 12.3603 14.0258 12.1711 13.8972L8.02455 11.0777C7.94396 11.0229 7.83806 11.0229 7.75746 11.0777L3.61089 13.8972C3.42175 14.0258 3.17797 13.839 3.25299 13.6229L4.81946 9.11088C4.85468 9.00943 4.81745 8.89697 4.72864 8.83659L0.644002 6.05918C0.450611 5.92768 0.543683 5.62528 0.777546 5.62528H5.86063C5.96177 5.62528 6.05182 5.56122 6.08499 5.46567L7.66664 0.909922Z" fill="#3568D4"/>
</svg>
