<svg width="20" height="17" viewBox="0 0 20 17" fill="none" xmlns="http://www.w3.org/2000/svg">
<path d="M19.1286 2.63266C18.4249 2.94135 17.6751 3.14595 16.8934 3.2453C17.6976 2.76512 18.3114 2.01057 18.6 1.10108C17.8502 1.54813 17.0223 1.86391 16.14 2.04013C15.428 1.28203 14.4132 0.8125 13.3062 0.8125C11.1585 0.8125 9.42938 2.55579 9.42938 4.69291C9.42938 5.00041 9.4554 5.29609 9.51927 5.57757C6.29407 5.42027 3.44023 3.87449 1.52309 1.51975C1.18838 2.10045 0.992057 2.76513 0.992057 3.48065C0.992057 4.82419 1.68393 6.01516 2.71524 6.70467C2.09196 6.69285 1.48051 6.51189 0.962489 6.22687C0.962489 6.23869 0.962489 6.25407 0.962489 6.26944C0.962489 8.15465 2.30721 9.72054 4.0706 10.0813C3.75483 10.1676 3.41066 10.209 3.05349 10.209C2.80512 10.209 2.55439 10.1948 2.31904 10.1428C2.82168 11.6791 4.24801 12.8085 5.94399 12.8452C4.6241 13.8777 2.94823 14.4998 1.13398 14.4998C0.815836 14.4998 0.510701 14.4856 0.205566 14.4466C1.92402 15.5548 3.96061 16.1875 6.15687 16.1875C13.2956 16.1875 17.1985 10.274 17.1985 5.14825C17.1985 4.97676 17.1926 4.81118 17.1843 4.64679C17.9542 4.10038 18.6012 3.41797 19.1286 2.63266Z" fill="black"/>
</svg>
