<svg width="76" height="16" viewBox="0 0 76 16" fill="none" xmlns="http://www.w3.org/2000/svg">
<path d="M12.5857 0H15.4701V9.35234C15.4701 14.2729 12.3945 16 7.9324 16C3.48628 16 0.410645 14.2729 0.410645 9.35234V0.374745C0.410645 0.114053 0.538132 0 0.793107 0H3.67751V9.2057C3.67751 12.1548 4.95239 13.3768 7.9324 13.3768C10.9284 13.3768 12.2032 12.1548 12.2032 9.2057V0.374745C12.2032 0.114053 12.3307 0 12.5857 0ZM45.2384 2.55804V6.50102H52.5371C52.6646 6.50102 52.7124 6.56619 52.6646 6.69654L51.8678 8.7169C51.7881 8.89613 51.6765 8.9776 51.4375 8.9776H47.1507C45.7484 8.9776 45.2384 9.41752 45.2384 10.3788V13.165H55.1187C55.2462 13.165 55.294 13.2301 55.2462 13.3605L54.4175 15.4623C54.3378 15.6415 54.2263 15.723 53.9873 15.723H43.1668C42.3381 15.723 42.0194 15.4297 42.0194 14.7943V1.09165C42.0194 0.325866 42.4337 0 43.5173 0H55.1187C55.2462 0 55.294 0.0651731 55.2462 0.179226L54.4175 2.29735C54.3378 2.47658 54.2263 2.55804 53.9873 2.55804H45.2384ZM36.0753 11.3727C36.0753 14.5173 33.908 15.723 30.8642 15.723H22.8006C21.956 15.723 21.6532 15.4297 21.6532 14.7943V1.09165C21.6532 0.325866 22.0516 0 23.1512 0H29.7009C32.5694 0 35.3422 0.505092 35.3422 3.99185C35.3422 5.49084 34.8163 6.76171 33.5574 7.42974C35.2944 7.90224 36.0753 9.49898 36.0753 11.3727ZM24.8245 6.5499H29.9399C31.6291 6.5499 32.1072 5.88187 32.1072 4.51324C32.1072 3.1446 31.6291 2.49287 29.9399 2.49287H24.8245V6.5499ZM32.8403 11.0794C32.8403 9.62933 32.3463 8.91242 30.5296 8.91242H26.7527C25.3504 8.91242 24.8245 9.35234 24.8245 10.3136V13.2301H30.5296C32.3463 13.2301 32.8403 12.5132 32.8403 11.0794ZM75.2299 15.723H72.2976C72.0586 15.723 71.963 15.6253 71.8674 15.4623L68.7599 9.72709H65.9073C64.505 9.72709 63.9791 10.167 63.9791 11.1283V15.723H61.1744C60.9194 15.723 60.7919 15.5927 60.7919 15.3483V1.09165C60.7919 0.325866 61.2062 0 62.2899 0H68.8714C72.712 0 75.0227 1.02648 75.0227 4.8391C75.0227 7.78819 73.6363 8.94501 71.9152 9.40122L75.3733 15.446C75.437 15.5438 75.437 15.723 75.2299 15.723ZM71.7877 4.90428C71.7877 3.30754 71.3574 2.52546 69.3495 2.52546H63.9791V7.2831H69.3495C71.3574 7.2831 71.7877 6.51731 71.7877 4.90428Z" fill="#666666"/>
</svg>
